# Blender v2.81 (sub 16) OBJ File: 'dreamTotemMultiFaces.blend'
# www.blender.org
mtllib outerShell.mtl
o Cube.000_Mesh.012
v 0.336300 4.016096 0.647720
v 0.720798 4.016096 -0.119456
v 0.000000 4.016096 0.000000
v 0.000000 4.016096 0.000000
v 0.719940 4.016096 -0.119684
v 0.109129 4.016096 -0.722434
v -0.512095 4.016096 0.519997
v 0.336348 4.016096 0.648606
v 0.000000 4.016096 0.000000
v -0.652793 4.016096 -0.326343
v -0.512924 4.016096 0.520317
v -0.000000 4.016096 0.000000
v 0.108647 4.016096 -0.721688
v -0.653353 4.016096 -0.327032
v -0.000000 4.016096 0.000000
vt 0.000000 0.000000
vt 1.000000 0.500000
vt 0.000000 1.000000
vt 0.000000 0.000000
vt 1.000000 0.500000
vt 0.000000 1.000000
vt 0.000000 0.000000
vt 1.000000 0.500000
vt 0.000000 1.000000
vt 0.000000 0.000000
vt 1.000000 0.500000
vt 0.000000 1.000000
vt 0.000000 0.000000
vt 1.000000 0.500000
vt 0.000000 1.000000
vn 0.0000 1.0000 0.0000
usemtl None
s 1
f 2/1/1 3/2/1 1/3/1
f 6/4/1 4/5/1 5/6/1
f 8/7/1 9/8/1 7/9/1
f 11/10/1 12/11/1 10/12/1
f 14/13/1 15/14/1 13/15/1
o Cube.005_Mesh.016
v 1.073197 3.452142 0.149918
v 0.788908 3.970960 -0.068261
v 1.355248 3.644941 -0.451126
vt 0.407379 0.744543
vt 0.326466 0.793472
vt 0.308508 0.715608
vn 0.6596 0.5683 0.4918
usemtl None
s 1
f 18/16/2 17/17/2 16/18/2
o Cube.006_Mesh.017
v 0.894230 3.221388 -0.261375
v 0.487686 3.447849 -0.955747
v 1.243478 2.332175 -0.896058
vt 0.453272 0.548206
vt 0.426741 0.715646
vt 0.346484 0.681659
vn 0.7981 0.5248 -0.2961
usemtl None
s 1
f 21/19/3 20/20/3 19/21/3
o Cube.007_Mesh.018
v 0.139315 3.962373 -0.808668
v 0.434432 3.443810 -1.011024
v 1.316466 3.636354 -0.588784
vt 0.656711 0.727904
vt 0.661523 0.812198
vt 0.509948 0.706460
vn 0.2887 0.4862 -0.8248
usemtl None
s 1
f 23/22/4 22/23/4 24/24/4
o Cube.008_Mesh.020
v 0.019286 3.153788 -0.903372
v 0.010699 2.589579 -0.832690
v 1.147929 2.264579 -0.926166
vt 0.692820 0.596982
vt 0.694872 0.681658
vt 0.504338 0.597285
vn -0.1158 -0.1217 -0.9858
usemtl None
s 1
f 26/25/5 25/26/5 27/27/5
o Cube.009_Mesh.021
v 0.825055 2.595042 -0.156526
v 0.896005 3.157259 -0.170552
v 1.245253 2.268046 -0.805235
vt 0.346484 0.681659
vt 0.341192 0.597282
vt 0.453272 0.548206
vn 0.8150 -0.0886 0.5726
usemtl None
s 1
f 29/28/6 28/29/6 30/30/6
o Cube.010_Mesh.025
v 0.084607 2.566357 -0.847911
v 0.102428 1.886721 -0.537888
v 0.801639 2.568353 -0.292678
v 0.513372 1.886695 -0.180290
vt 0.564725 0.597282
vt 0.600658 0.494979
vt 0.675898 0.494982
vt 0.692820 0.596982
vn 0.5980 -0.3371 -0.7272
usemtl None
s 1
f 33/31/7 34/32/7 32/33/7 31/34/7
o Cube.011_Mesh.026
v 0.080867 2.007373 -0.507835
v 0.491811 2.007346 -0.150238
v 0.715283 1.221033 -1.396292
vt 0.675898 0.494982
vt 0.600658 0.494979
vt 0.626549 0.376969
vn 0.3849 0.8101 -0.4422
usemtl None
s 1
f 35/35/8 36/36/8 37/37/8
o Cube.012_Mesh.027
v 0.552243 1.950870 -0.103760
v 0.949214 0.533145 0.116058
v 0.775715 1.164556 -1.349815
vt 0.311781 0.494979
vt 0.298816 0.282207
vt 0.500000 0.376969
vn 0.9629 0.2700 0.0023
usemtl None
s 1
f 38/38/9 39/39/9 40/40/9
o Cube.013_Mesh.028
v 0.444745 0.580014 -0.778482
v 1.014327 0.075757 -0.315294
v 0.938336 0.075757 -1.073236
vt 0.468306 0.206528
vt 0.403343 0.282207
vt 0.363646 0.206528
vn 0.6923 0.7182 -0.0694
usemtl None
s 1
f 43/41/10 41/42/10 42/43/10
o Cube.014_Mesh.029
v 0.950845 0.526304 0.112918
v 1.044245 0.022046 -0.310934
v 0.777346 1.157715 -1.352955
vt 0.500000 0.376969
vt 0.298816 0.282207
vt 0.363646 0.206528
vn 0.9785 0.2045 -0.0277
usemtl None
s 1
f 46/44/11 44/45/11 45/46/11
o Cube.015_Mesh.030
v -0.010002 0.047279 -1.084247
v 0.857899 0.047279 -1.159217
v 0.364308 0.551536 -0.864462
vt 0.586126 0.206528
vt 0.706528 0.206528
vt 0.642908 0.282207
vn -0.0770 0.4459 -0.8918
usemtl None
s 1
f 48/47/12 47/48/12 49/49/12
o Cube.016_Mesh.031
v 0.474216 3.452142 -0.974343
v 0.178865 3.970960 -0.771389
v -0.010252 3.644941 -1.428323
vt 0.407379 0.744543
vt 0.326466 0.793472
vt 0.308508 0.715608
vn 0.6716 0.5683 -0.4754
usemtl None
s 1
f 52/50/13 51/51/13 50/52/13
o Cube.017_Mesh.032
v 0.027749 3.221388 -0.931232
v -0.758267 3.447849 -0.759159
v -0.467947 2.332175 -1.459514
vt 0.453272 0.548206
vt 0.426741 0.715646
vt 0.346484 0.681659
vn -0.0350 0.5248 -0.8505
usemtl None
s 1
f 55/53/14 54/54/14 53/55/14
o Cube.018_Mesh.033
v -0.726039 3.962373 -0.382388
v -0.827295 3.443810 -0.725593
v -0.153157 3.636354 -1.433978
vt 0.656711 0.727904
vt 0.661523 0.812198
vt 0.509948 0.706460
vn -0.6952 0.4862 -0.5295
usemtl None
s 1
f 57/56/15 56/57/15 58/58/15
o Cube.019_Mesh.034
v -0.893143 3.153788 -0.310477
v -0.828574 2.589579 -0.280469
v -0.566051 2.264579 -1.390925
vt 0.692820 0.596982
vt 0.694872 0.681658
vt 0.504338 0.597285
vn -0.9733 -0.1217 -0.1945
usemtl None
s 1
f 60/59/16 59/60/16 61/61/16
o Cube.020_Mesh.035
v 0.106090 2.595042 -0.833043
v 0.114676 3.157259 -0.904854
v -0.381020 2.268046 -1.433136
vt 0.346484 0.681659
vt 0.341192 0.597282
vt 0.453272 0.548206
vn 0.7964 -0.0886 -0.5982
usemtl None
s 1
f 63/62/17 62/63/17 64/64/17
o Cube.021_Mesh.036
v -0.780267 2.566357 -0.342484
v -0.479910 1.886721 -0.263631
v -0.030634 2.568353 -0.852846
v -0.012826 1.886695 -0.543958
vt 0.564725 0.597282
vt 0.600658 0.494979
vt 0.675898 0.494982
vt 0.692820 0.596982
vn -0.5068 -0.3371 -0.7934
usemtl None
s 1
f 67/65/18 68/66/18 66/67/18 65/68/18
o Cube.022_Mesh.037
v -0.457991 2.007373 -0.233839
v 0.009093 2.007346 -0.514166
v -1.106918 1.221033 -1.111753
vt 0.675898 0.494982
vt 0.600658 0.494979
vt 0.626549 0.376969
vn -0.3016 0.8101 -0.5027
usemtl None
s 1
f 69/69/19 70/70/19 71/71/19
o Cube.023_Mesh.038
v 0.071970 1.950870 -0.557278
v 0.403701 0.533146 -0.866892
v -1.044042 1.164556 -1.154865
vt 0.311781 0.494979
vt 0.298816 0.282207
vt 0.500000 0.376969
vn 0.2998 0.2700 -0.9150
usemtl None
s 1
f 72/72/20 73/73/20 74/74/20
o Cube.024_Mesh.039
v -0.602946 0.580014 -0.663542
v 0.013582 0.075757 -1.062114
v -0.730747 0.075757 -1.224059
vt 0.468306 0.206528
vt 0.403343 0.282207
vt 0.363646 0.206528
vn 0.1479 0.7182 -0.6799
usemtl None
s 1
f 77/75/21 75/76/21 76/77/21
o Cube.025_Mesh.040
v 0.401219 0.526304 -0.869414
v 0.026974 0.022047 -1.089220
v -1.046524 1.157715 -1.157386
vt 0.500000 0.376969
vt 0.298816 0.282207
vt 0.363646 0.206528
vn 0.2760 0.2045 -0.9391
usemtl None
s 1
f 80/78/22 78/79/22 79/80/22
o Cube.026_Mesh.041
v -1.034271 0.047279 -0.325539
v -0.837375 0.047279 -1.174128
v -0.709575 0.551536 -0.613611
vt 0.586126 0.206528
vt 0.706528 0.206528
vt 0.642908 0.282207
vn -0.8719 0.4459 -0.2023
usemtl None
s 1
f 82/81/23 81/82/23 83/83/23
o Cube.027_Mesh.042
v -0.807063 3.317385 -0.719921
v -0.843897 3.091178 -0.340125
v -1.388533 3.510184 -0.399452
vt 0.346484 0.681659
vt 0.407379 0.744543
vt 0.308508 0.715608
vn -0.5023 -0.7206 -0.4779
usemtl None
s 1
f 85/84/24 86/85/24 84/86/24
o Cube.028_Mesh.043
v -0.956354 3.452142 0.509523
v -0.598117 3.970960 0.518933
v -0.831254 3.644941 1.161564
vt 0.407379 0.744543
vt 0.326466 0.793472
vt 0.308508 0.715608
vn -0.8228 0.5683 -0.0102
usemtl None
s 1
f 89/87/25 88/88/25 87/89/25
o Cube.029_Mesh.044
v -0.569815 3.221388 0.737072
v 0.167227 3.447849 1.059871
v -0.479305 2.332175 1.455824
vt 0.453272 0.548206
vt 0.426741 0.715646
vt 0.346484 0.681659
vn -0.4716 0.5248 0.7086
usemtl None
s 1
f 92/90/26 91/91/26 90/92/26
o Cube.030_Mesh.045
v 0.362615 3.962373 0.736114
v 0.242802 3.443810 1.073289
v -0.718965 3.636354 1.250136
vt 0.656711 0.727904
vt 0.661523 0.812198
vt 0.509948 0.706460
vn 0.2512 0.4862 0.8370
usemtl None
s 1
f 94/93/27 93/94/27 95/95/27
o Cube.031_Mesh.046
v 0.540073 3.153788 0.776158
v 0.505474 2.589579 0.713928
v -0.359621 2.264579 1.457998
vt 0.692820 0.596982
vt 0.694872 0.681658
vt 0.504338 0.597285
vn 0.6731 -0.1217 0.7294
usemtl None
s 1
f 97/96/28 96/97/28 98/98/28
o Cube.032_Mesh.047
v -0.575480 2.595042 0.611587
v -0.624635 3.157259 0.664638
v -0.534126 2.268046 1.383390
vt 0.346484 0.681659
vt 0.341192 0.597282
vt 0.453272 0.548206
vn -0.9959 -0.0886 0.0158
usemtl None
s 1
f 100/99/29 99/100/29 101/101/29
o Cube.033_Mesh.048
v 0.429941 2.566357 0.735705
v 0.233296 1.886721 0.495366
v -0.476508 2.568353 0.707973
v -0.309355 1.886695 0.447611
vt 0.564725 0.597282
vt 0.600658 0.494979
vt 0.675898 0.494982
vt 0.692820 0.596982
vn -0.0563 -0.3371 0.9398
usemtl None
s 1
f 104/102/30 105/103/30 103/104/30 102/105/30
o Cube.034_Mesh.049
v 0.233075 2.007373 0.458380
v -0.309576 2.007347 0.410624
v 0.242044 1.221033 1.550057
vt 0.675898 0.494982
vt 0.600658 0.494979
vt 0.626549 0.376969
vn -0.0514 0.8101 0.5840
usemtl None
s 1
f 106/106/31 107/107/31 108/108/31
o Cube.035_Mesh.050
v -0.385785 1.950870 0.408544
v -0.836148 0.533145 0.464041
v 0.165834 1.164556 1.547977
vt 0.311781 0.494979
vt 0.298816 0.282207
vt 0.500000 0.376969
vn -0.7803 0.2700 0.5641
usemtl None
s 1
f 109/109/32 110/110/32 111/111/32
o Cube.036_Mesh.051
v 0.097773 0.580014 0.891220
v -0.635283 0.075757 0.851284
v -0.128298 0.075757 1.419807
vt 0.468306 0.206528
vt 0.403343 0.282207
vt 0.363646 0.206528
vn -0.5193 0.7182 0.4631
usemtl None
s 1
f 114/112/33 112/113/33 113/114/33
o Cube.037_Mesh.052
v -0.835622 0.526304 0.467540
v -0.662050 0.022046 0.865342
v 0.166360 1.157715 1.551477
vt 0.500000 0.376969
vt 0.298816 0.282207
vt 0.363646 0.206528
vn -0.7753 0.2045 0.5975
usemtl None
s 1
f 117/115/34 115/116/34 116/117/34
o Cube.038_Mesh.053
v 0.645396 0.047279 0.871296
v -0.012685 0.047279 1.442086
v 0.213386 0.551536 0.913499
vt 0.586126 0.206528
vt 0.706528 0.206528
vt 0.642908 0.282207
vn 0.5865 0.4459 0.6762
usemtl None
s 1
f 119/118/35 118/119/35 120/120/35
o Cube.039_Mesh.054
v 0.189055 3.452142 1.066998
v 0.308706 3.970960 0.729202
v 0.847841 3.644941 1.149512
vt 0.407379 0.744543
vt 0.326466 0.793472
vt 0.308508 0.715608
vn -0.2639 0.5683 0.7793
usemtl None
s 1
f 123/121/36 122/122/36 121/123/36
o Cube.040_Mesh.055
v 0.524915 3.221388 0.769694
v 1.059673 3.447849 0.168475
v 1.236458 2.332175 0.905721
vt 0.453272 0.548206
vt 0.426741 0.715646
vt 0.346484 0.681659
vn 0.5282 0.5248 0.6675
usemtl None
s 1
f 126/124/37 125/125/37 124/126/37
o Cube.041_Mesh.056
v 0.812140 3.962373 -0.117396
v 1.095788 3.443810 0.100746
v 0.966778 3.636354 1.070090
vt 0.656711 0.727904
vt 0.661523 0.812198
vt 0.509948 0.706460
vn 0.8736 0.4862 0.0197
usemtl None
s 1
f 128/127/38 127/128/38 129/129/38
o Cube.042_Mesh.057
v 0.905062 3.153788 -0.273794
v 0.835186 2.589579 -0.260119
v 1.275510 2.264579 0.792566
vt 0.692820 0.596982
vt 0.694872 0.681658
vt 0.504338 0.597285
vn 0.9017 -0.1217 -0.4148
usemtl None
s 1
f 131/130/39 130/131/39 132/132/39
o Cube.043_Mesh.058
v 0.403821 2.595042 0.736305
v 0.439085 3.157259 0.799448
v 1.150628 2.268046 0.935475
vt 0.346484 0.681659
vt 0.341192 0.597282
vt 0.453272 0.548206
vn -0.2927 -0.0886 0.9521
usemtl None
s 1
f 134/133/40 133/134/40 135/135/40
o Cube.044_Mesh.059
v 0.832556 2.566357 -0.181553
v 0.543214 1.886721 -0.068801
v 0.526074 2.568353 0.671962
v 0.330107 1.886695 0.432533
vt 0.564725 0.597282
vt 0.600658 0.494979
vt 0.675898 0.494982
vt 0.692820 0.596982
vn 0.8764 -0.3371 0.3440
usemtl None
s 1
f 138/136/41 139/137/41 137/138/41 136/139/41
o Cube.045_Mesh.060
v 0.507969 2.007373 -0.080021
v 0.294862 2.007346 0.421314
v 1.548988 1.221033 0.248797
vt 0.675898 0.494982
vt 0.600658 0.494979
vt 0.626549 0.376969
vn 0.5395 0.8101 0.2294
usemtl None
s 1
f 140/140/42 141/141/42 142/142/42
o Cube.046_Mesh.061
v 0.269335 1.950870 0.493151
v 0.182945 0.533145 0.938621
v 1.523460 1.164556 0.320633
vt 0.311781 0.494979
vt 0.298816 0.282207
vt 0.500000 0.376969
vn 0.2953 0.2700 0.9165
usemtl None
s 1
f 143/143/43 144/144/43 145/145/43
o Cube.047_Mesh.062
v 0.877814 0.580014 0.182414
v 0.613306 0.075757 0.867252
v 1.310670 0.075757 0.560762
vt 0.468306 0.206528
vt 0.403343 0.282207
vt 0.363646 0.206528
vn 0.2800 0.7182 0.6370
usemtl None
s 1
f 148/146/44 146/147/44 147/148/44
o Cube.048_Mesh.063
v 0.186436 0.526304 0.939201
v 0.618405 0.022046 0.897053
v 1.526950 1.157715 0.321214
vt 0.500000 0.376969
vt 0.298816 0.282207
vt 0.363646 0.206528
vn 0.3287 0.2045 0.9220
usemtl None
s 1
f 151/149/45 149/150/45 150/151/45
o Cube.049_Mesh.064
v 1.028090 0.047279 -0.344563
v 1.367586 0.047279 0.457693
v 0.934729 0.551536 0.079344
vt 0.586126 0.206528
vt 0.706528 0.206528
vt 0.642908 0.282207
vn 0.8243 0.4459 -0.3488
usemtl None
s 1
f 153/152/46 152/153/46 154/154/46
o Cube.050_Mesh.065
v 1.076088 3.317385 0.108049
v 0.882648 3.091178 -0.220863
v 1.358139 3.510184 -0.492996
vt 0.346484 0.681659
vt 0.407379 0.744543
vt 0.308508 0.715608
vn 0.6873 -0.7206 0.0914
usemtl None
s 1
f 156/155/47 157/156/47 155/157/47
o Cube.051_Mesh.066
v 0.852899 3.085577 -0.281469
v 0.446355 3.312037 -0.975842
v 1.328389 3.504582 -0.553602
vt 0.509948 0.706460
vt 0.583053 0.665685
vt 0.656711 0.727904
vn 0.4028 -0.7742 -0.4883
usemtl None
s 1
f 160/158/48 158/159/48 159/160/48
o Cube.052_Mesh.067
v 1.318400 3.679547 -0.535099
v 0.752060 4.005565 -0.152234
v 0.141249 4.005565 -0.754983
vt 0.509948 0.706460
vt 0.661523 0.812198
vt 0.553022 0.773674
vn 0.3072 0.8993 -0.3113
usemtl None
s 1
f 161/161/49 163/162/49 162/163/49
o Cube.053_Mesh.068
v 0.390529 3.378199 -1.027379
v 1.146320 2.262526 -0.967689
v 0.017677 3.151734 -0.944895
vt 0.504338 0.597285
vt 0.694872 0.681658
vt 0.656711 0.727904
vn -0.1312 -0.1414 -0.9812
usemtl None
s 1
f 165/164/50 166/165/50 164/166/50
o Cube.054_Mesh.069
v 1.135198 2.181063 -0.832676
v -0.002032 2.506062 -0.739200
v 0.715000 2.508059 -0.183967
vt 0.263983 0.548206
vt 0.234091 0.597282
vt 0.105996 0.596982
vn -0.2376 -0.9205 0.3101
usemtl None
s 1
f 167/167/51 169/168/51 168/169/51
o Cube.055_Mesh.070
v -0.047598 1.914135 -0.517047
v 0.586818 1.127796 -1.405504
v 0.284134 0.496385 -0.826671
vt 0.706528 0.376969
vt 0.803185 0.282207
vt 0.862764 0.494982
vn -0.8439 -0.0816 -0.5303
usemtl None
s 1
f 171/170/52 172/171/52 170/172/52
o Cube.056_Mesh.071
v 0.675133 1.065656 -1.427106
v 0.942031 -0.070012 -0.385084
v 0.372449 0.434245 -0.848272
vt 0.626549 0.376969
vt 0.540128 0.206528
vt 0.642908 0.282207
vn 0.0008 -0.6760 -0.7369
usemtl None
s 1
f 173/173/53 174/174/53 175/175/53
o Cube.057_Mesh.072
v 0.435289 3.317385 -0.990031
v 0.062699 3.091178 -0.907699
v -0.049180 3.510184 -1.444011
vt 0.346484 0.681659
vt 0.407379 0.744543
vt 0.308508 0.715608
vn 0.2993 -0.7206 -0.6254
usemtl None
s 1
f 177/176/54 178/177/54 176/178/54
o Cube.058_Mesh.073
v -0.004134 3.085577 -0.898133
v -0.790150 3.312037 -0.726060
v -0.116013 3.504582 -1.434446
vt 0.509948 0.706460
vt 0.583053 0.665685
vt 0.656711 0.727904
vn -0.3399 -0.7742 -0.5339
usemtl None
s 1
f 181/179/55 179/180/55 180/181/55
o Cube.059_Mesh.074
v -0.101502 3.679547 -1.419228
v 0.087616 4.005565 -0.762294
v -0.674384 4.005565 -0.367638
vt 0.509948 0.706460
vt 0.661523 0.812198
vt 0.553022 0.773674
vn -0.2012 0.8993 -0.3884
usemtl None
s 1
f 182/182/56 184/183/56 183/184/56
o Cube.060_Mesh.075
v -0.856416 3.378199 -0.688892
v -0.566095 2.262526 -1.389248
v -0.893187 3.151734 -0.308800
vt 0.504338 0.597285
vt 0.694872 0.681658
vt 0.656711 0.727904
vn -0.9737 -0.1414 -0.1784
usemtl None
s 1
f 186/185/57 187/186/57 185/187/57
o Cube.061_Mesh.076
v -0.441127 2.181063 -1.336948
v -0.703649 2.506062 -0.226492
v 0.045984 2.508059 -0.736854
vt 0.263983 0.548206
vt 0.234091 0.597282
vt 0.105996 0.596982
vn 0.2215 -0.9205 0.3218
usemtl None
s 1
f 188/188/58 190/189/58 189/190/58
o Cube.062_Mesh.077
v -0.506450 1.914135 -0.114507
v -1.155377 1.127796 -0.992421
v -0.698408 0.496385 -0.525683
vt 0.706528 0.376969
vt 0.803185 0.282207
vt 0.862764 0.494982
vn -0.7651 -0.0816 0.6387
usemtl None
s 1
f 192/191/59 193/192/59 191/193/59
o Cube.063_Mesh.078
v -1.148631 1.065656 -1.083089
v -0.075133 -0.070011 -1.014923
v -0.691662 0.434245 -0.616351
vt 0.626549 0.376969
vt 0.540128 0.206528
vt 0.642908 0.282207
vn -0.7006 -0.6760 -0.2285
usemtl None
s 1
f 194/194/60 195/195/60 196/196/60
o Cube.064_Mesh.079
v -0.934083 3.317385 0.545095
v -0.584257 3.091178 0.697490
v -0.808982 3.510184 1.197137
vt 0.346484 0.681659
vt 0.407379 0.744543
vt 0.308508 0.715608
vn -0.6097 -0.7206 0.3301
usemtl None
s 1
f 198/197/61 199/198/61 197/199/61
o Cube.065_Mesh.080
v -0.524566 3.085577 0.729035
v 0.212476 3.312037 1.051834
v -0.749291 3.504582 1.228681
vt 0.509948 0.706460
vt 0.583053 0.665685
vt 0.656711 0.727904
vn -0.0388 -0.7742 0.6318
usemtl None
s 1
f 202/200/62 200/201/62 201/202/62
o Cube.066_Mesh.081
v -0.752085 3.679546 1.207841
v -0.518949 4.005565 0.565210
v 0.329495 4.005565 0.693819
vt 0.509948 0.706460
vt 0.661523 0.812198
vt 0.553022 0.773674
vn -0.0656 0.8993 0.4324
usemtl None
s 1
f 203/203/63 205/204/63 204/205/63
o Cube.067_Mesh.082
v 0.287933 3.378199 1.060714
v -0.358599 2.262526 1.456667
v 0.541094 3.151734 0.774827
vt 0.504338 0.597285
vt 0.694872 0.681658
vt 0.656711 0.727904
vn 0.6829 -0.1414 0.7167
usemtl None
s 1
f 207/206/64 208/207/64 206/208/64
o Cube.068_Mesh.083
v -0.428960 2.181063 1.340902
v 0.436135 2.506062 0.596831
v -0.470314 2.508059 0.569099
vt 0.263983 0.548206
vt 0.234091 0.597282
vt 0.105996 0.596982
vn 0.0099 -0.9205 -0.3905
usemtl None
s 1
f 209/209/65 211/210/65 210/211/65
o Cube.069_Mesh.084
v 0.342420 1.914135 0.390322
v 0.351389 1.127796 1.482000
v 0.256035 0.496385 0.835801
vt 0.706528 0.376969
vt 0.803185 0.282207
vt 0.862764 0.494982
vn 0.9944 -0.0816 -0.0670
usemtl None
s 1
f 213/212/66 214/213/66 212/214/66
o Cube.070_Mesh.085
v 0.292638 1.065656 1.551386
v -0.535773 -0.070012 0.865252
v 0.197284 0.434245 0.905187
vt 0.626549 0.376969
vt 0.540128 0.206528
vt 0.642908 0.282207
vn 0.4325 -0.6760 0.5967
usemtl None
s 1
f 215/215/67 216/216/67 217/217/67
o Cube.071_Mesh.086
v 0.229769 3.317385 1.056810
v 0.482807 3.091178 0.771198
v 0.888555 3.510184 1.139323
vt 0.346484 0.681659
vt 0.407379 0.744543
vt 0.308508 0.715608
vn 0.1255 -0.7206 0.6819
usemtl None
s 1
f 219/218/68 220/219/68 218/220/68
o Cube.072_Mesh.087
v 0.531254 3.085577 0.724176
v 1.066012 3.312037 0.122958
v 0.937002 3.504582 1.092301
vt 0.509948 0.706460
vt 0.583053 0.665685
vt 0.656711 0.727904
vn 0.5889 -0.7742 0.2321
usemtl None
s 1
f 223/221/69 221/222/69 222/223/69
o Cube.073_Mesh.088
v 0.916318 3.679546 1.088519
v 0.377182 4.005565 0.668209
v 0.761680 4.005565 -0.098966
vt 0.509948 0.706460
vt 0.661523 0.812198
vt 0.553022 0.773674
vn 0.3910 0.8993 0.1960
usemtl None
s 1
f 224/224/70 226/225/70 225/226/70
o Cube.074_Mesh.089
v 1.097775 3.378199 0.053938
v 1.274560 2.262526 0.791183
v 0.904112 3.151734 -0.275176
vt 0.504338 0.597285
vt 0.694872 0.681658
vt 0.656711 0.727904
vn 0.8927 -0.1414 -0.4280
usemtl None
s 1
f 228/227/71 229/228/71 227/229/71
o Cube.075_Mesh.090
v 1.142717 2.181063 0.822327
v 0.702393 2.506062 -0.230358
v 0.395911 2.508059 0.623157
vt 0.263983 0.548206
vt 0.234091 0.597282
vt 0.105996 0.596982
vn -0.3684 -0.9205 -0.1301
usemtl None
s 1
f 230/230/72 232/231/72 231/232/72
o Cube.076_Mesh.091
v 0.477032 1.914135 -0.205045
v 1.518051 1.127796 0.123772
v 0.874013 0.496385 0.014773
vt 0.706528 0.376969
vt 0.803185 0.282207
vt 0.862764 0.494982
vn 0.2436 -0.0816 -0.9664
usemtl None
s 1
f 234/233/73 235/234/73 233/235/73
o Cube.077_Mesh.092
v 1.565886 1.065656 0.201090
v 0.657341 -0.070012 0.776928
v 0.921848 0.434245 0.092090
vt 0.626549 0.376969
vt 0.540128 0.206528
vt 0.642908 0.282207
vn 0.7011 -0.6760 -0.2269
usemtl None
s 1
f 236/236/74 237/237/74 238/238/74
o Cube.001_Mesh.167
v -0.825130 3.157259 -0.388679
v -0.759487 2.595042 -0.358323
v -1.480735 2.268046 -0.080493
vt 0.346484 0.681659
vt 0.341192 0.597282
vt 0.453272 0.548206
vn -0.3228 -0.0886 -0.9423
usemtl None
s 1
f 239/239/75 240/240/75 241/241/75
o Cube.002_Mesh.168
v -1.400088 3.504582 -0.332934
v -0.855452 3.085577 -0.273607
v -0.934694 3.312037 0.527112
vt 0.509948 0.706460
vt 0.583053 0.665685
vt 0.656711 0.727904
vn -0.6128 -0.7742 0.1583
usemtl None
s 1
f 242/242/76 243/243/76 244/244/76
o Cube.003_Mesh.169
v -0.697910 4.005565 -0.318890
v -0.558041 4.005565 0.527770
v -1.381131 3.679547 -0.342032
vt 0.509948 0.706460
vt 0.661523 0.812198
vt 0.553022 0.773674
vn -0.4315 0.8993 0.0713
usemtl None
s 1
f 247/245/77 246/246/77 245/247/77
o Cube.004_Mesh.170
v -0.588031 3.962373 0.572339
v -0.945728 3.443810 0.562583
v -1.411122 3.636354 -0.297463
vt 0.656711 0.727904
vt 0.661523 0.812198
vt 0.509948 0.706460
vn -0.7184 0.4862 0.4976
usemtl None
s 1
f 249/248/78 248/249/78 250/250/78
o Cube.078_Mesh.171
v -0.919822 3.378199 0.601620
v -0.569696 3.151734 0.754046
v -1.496186 2.262526 0.109087
vt 0.504338 0.597285
vt 0.694872 0.681658
vt 0.656711 0.727904
vn -0.4706 -0.1414 0.8709
usemtl None
s 1
f 253/251/79 252/252/79 251/253/79
o Cube.079_Mesh.172
v -0.571278 3.153788 0.753486
v -0.522785 2.589579 0.701351
v -1.497767 2.264580 0.108527
vt 0.692820 0.596982
vt 0.694872 0.681658
vt 0.504338 0.597285
vn -0.4857 -0.1217 0.8656
usemtl None
s 1
f 255/254/80 254/255/80 256/256/80
o Cube.080_Mesh.173
v -0.566838 2.566357 0.636244
v -0.399029 1.886721 0.374955
v -0.820571 2.568353 -0.234410
v -0.521299 1.886695 -0.155895
vt 0.564725 0.597282
vt 0.600658 0.494979
vt 0.675898 0.494982
vt 0.692820 0.596982
vn -0.9112 -0.3371 0.2368
usemtl None
s 1
f 259/257/81 260/258/81 258/259/81 257/260/81
o Cube.081_Mesh.174
v -0.265405 1.914135 0.446278
v -0.715774 0.496385 0.501781
v -1.300880 1.127795 0.792154
vt 0.706528 0.376969
vt 0.803185 0.282207
vt 0.862764 0.494982
vn 0.3710 -0.0816 0.9250
usemtl None
s 1
f 263/261/82 262/262/82 261/263/82
o Cube.082_Mesh.175
v -0.486191 2.007346 -0.167534
v -1.399396 1.221033 0.709191
v -0.363921 2.007373 0.363315
vt 0.675898 0.494982
vt 0.600658 0.494979
vt 0.626549 0.376969
vn -0.5713 0.8101 0.1315
usemtl None
s 1
f 266/264/83 264/265/83 265/266/83
o Cube.083_Mesh.176
v -1.420968 1.164556 0.636069
v -0.507763 1.950870 -0.240656
v -0.699713 0.533146 -0.651827
vt 0.311781 0.494979
vt 0.298816 0.282207
vt 0.500000 0.376969
vn -0.7776 0.2700 -0.5678
usemtl None
s 1
f 268/267/84 269/268/84 267/269/84
o Cube.084_Mesh.177
v -0.802849 0.551537 0.485229
v -0.629213 0.047279 0.883053
v -1.375425 0.047279 0.433565
vt 0.586126 0.206528
vt 0.706528 0.206528
vt 0.642908 0.282207
vn -0.4619 0.4459 0.7667
usemtl None
s 1
f 272/270/85 271/271/85 270/272/85
o Cube.085_Mesh.178
v -1.027574 0.022047 -0.362241
v -0.702878 0.526304 -0.650246
v -1.424134 1.157715 0.637651
vt 0.500000 0.376969
vt 0.298816 0.282207
vt 0.363646 0.206528
vn -0.8079 0.2045 -0.5527
usemtl None
s 1
f 275/273/86 274/274/86 273/275/86
o Cube.086_Mesh.179
v -0.780114 3.452142 -0.752095
v -1.361583 3.644941 -0.431626
v -0.678362 3.970960 -0.408484
vt 0.407379 0.744543
vt 0.326466 0.793472
vt 0.308508 0.715608
vn -0.2446 0.5683 -0.7856
usemtl None
s 1
f 277/276/87 278/277/87 276/278/87
o Cube.087_Mesh.180
v -0.877079 3.221388 -0.314158
v -0.956321 3.447849 0.486561
v -1.532684 2.332175 -0.005972
vt 0.453272 0.548206
vt 0.426741 0.715646
vt 0.346484 0.681659
vn -0.8197 0.5248 -0.2295
usemtl None
s 1
f 281/279/88 280/280/88 279/281/88
o Cube.088_Mesh.181
v -1.407829 2.181063 0.006396
v -0.432847 2.506062 0.599220
v -0.686580 2.508059 -0.271434
vt 0.263983 0.548206
vt 0.234091 0.597282
vt 0.105996 0.596982
vn 0.3745 -0.9205 -0.1112
usemtl None
s 1
f 282/282/89 284/283/89 283/284/89
o Cube.089_Mesh.182
v -1.385025 1.065656 0.757720
v -0.799920 0.434246 0.467347
v -0.988466 -0.070011 -0.242173
vt 0.626549 0.376969
vt 0.540128 0.206528
vt 0.642908 0.282207
vn -0.4338 -0.6760 0.5957
usemtl None
s 1
f 285/285/90 287/286/90 286/287/90
o Cube.090_Mesh.183
v -0.817386 0.580014 0.368390
v -1.005933 0.075757 -0.341129
v -1.389962 0.075757 0.316726
vt 0.468306 0.206528
vt 0.403343 0.282207
vt 0.363646 0.206528
vn -0.6009 0.7182 -0.3508
usemtl None
s 1
f 290/288/91 288/289/91 289/290/91
