# Blender v2.81 (sub 16) OBJ File: 'dreamTotemMultiFaces.blend'
# www.blender.org
mtllib totem.mtl
o Cube.181_Mesh.274
v 0.336300 3.911544 0.647720
v 0.720798 3.911544 -0.119456
v 0.000000 3.911544 0.000000
v 0.000000 3.911544 0.000000
v 0.719940 3.911544 -0.119684
v 0.109129 3.911544 -0.722434
v -0.512095 3.911544 0.519997
v 0.336348 3.911544 0.648606
v 0.000000 3.911544 0.000000
v -0.652793 3.911544 -0.326343
v -0.512924 3.911544 0.520317
v 0.000000 3.911544 0.000000
v 0.108647 3.911544 -0.721688
v -0.653353 3.911544 -0.327032
v 0.000000 3.911544 0.000000
vt 0.000000 0.000000
vt 1.000000 0.500000
vt 0.000000 1.000000
vt 0.000000 0.000000
vt 1.000000 0.500000
vt 0.000000 1.000000
vt 0.000000 0.000000
vt 1.000000 0.500000
vt 0.000000 1.000000
vt 0.000000 0.000000
vt 1.000000 0.500000
vt 0.000000 1.000000
vt 0.000000 0.000000
vt 1.000000 0.500000
vt 0.000000 1.000000
vn 0.0000 1.0000 -0.0000
usemtl None
s 1
f 2/1/1 3/2/1 1/3/1
f 6/4/1 4/5/1 5/6/1
f 8/7/1 9/8/1 7/9/1
f 11/10/1 12/11/1 10/12/1
f 14/13/1 15/14/1 13/15/1
o Cube.180_Mesh.200
v -0.791378 3.166519 -0.290159
v -0.725734 2.604302 -0.259802
v -1.446983 2.277307 0.018028
vt 0.346484 0.681659
vt 0.341192 0.597282
vt 0.453272 0.548206
vn -0.3228 -0.0886 -0.9423
usemtl None
s 1
f 16/16/2 17/17/2 18/18/2
o Cube.179_Mesh.199
v -1.336014 3.585525 -0.349485
v -0.791378 3.166519 -0.290159
v -0.870620 3.392980 0.510560
vt 0.509948 0.706460
vt 0.583053 0.665685
vt 0.656711 0.727904
vn -0.6128 -0.7742 0.1583
usemtl None
s 1
f 19/19/3 20/20/3 21/21/3
o Cube.178_Mesh.198
v -0.652792 3.911544 -0.326343
v -0.512923 3.911544 0.520317
v -1.336014 3.585525 -0.349485
vt 0.509948 0.706460
vt 0.661523 0.812198
vt 0.553022 0.773674
vn -0.4315 0.8993 0.0713
usemtl None
s 1
f 24/22/4 23/23/4 22/24/4
o Cube.177_Mesh.197
v -0.512923 3.911544 0.520317
v -0.870620 3.392980 0.510560
v -1.336014 3.585525 -0.349485
vt 0.656711 0.727904
vt 0.661523 0.812198
vt 0.509948 0.706460
vn -0.7184 0.4862 0.4976
usemtl None
s 1
f 26/25/5 25/26/5 27/27/5
o Cube.176_Mesh.273
v 1.004229 3.392726 0.098495
v 0.719940 3.911544 -0.119684
v 1.286281 3.585525 -0.502550
vt 0.407379 0.744543
vt 0.326466 0.793472
vt 0.308508 0.715608
vn 0.6596 0.5683 0.4918
usemtl None
s 1
f 30/28/6 29/29/6 28/30/6
o Cube.175_Mesh.272
v 0.810790 3.166519 -0.230417
v 0.404246 3.392980 -0.924789
v 1.160038 2.277307 -0.865100
vt 0.453272 0.548206
vt 0.426741 0.715646
vt 0.346484 0.681659
vn 0.7981 0.5248 -0.2961
usemtl None
s 1
f 33/31/7 32/32/7 31/33/7
o Cube.174_Mesh.271
v 0.109129 3.911544 -0.722434
v 0.404246 3.392980 -0.924789
v 1.286281 3.585525 -0.502550
vt 0.656711 0.727904
vt 0.661523 0.812198
vt 0.509948 0.706460
vn 0.2887 0.4862 -0.8248
usemtl None
s 1
f 35/34/8 34/35/8 36/36/8
o Cube.173_Mesh.270
v 0.031395 3.166515 -0.800306
v 0.022807 2.602306 -0.729624
v 1.160038 2.277307 -0.823100
vt 0.692820 0.596982
vt 0.694872 0.681658
vt 0.504338 0.597285
vn -0.1158 -0.1217 -0.9858
usemtl None
s 1
f 38/37/9 37/38/9 39/39/9
o Cube.172_Mesh.269
v 0.739840 2.604302 -0.216391
v 0.810790 3.166519 -0.230417
v 1.160038 2.277307 -0.865100
vt 0.346484 0.681659
vt 0.341192 0.597282
vt 0.453272 0.548206
vn 0.8150 -0.0886 0.5726
usemtl None
s 1
f 41/40/10 40/41/10 42/42/10
o Cube.171_Mesh.268
v 0.022807 2.602306 -0.771624
v 0.040629 1.922670 -0.461601
v 0.739840 2.604302 -0.216391
v 0.451573 1.922644 -0.104003
vt 0.564725 0.597282
vt 0.600658 0.494979
vt 0.675898 0.494982
vt 0.692820 0.596982
vn 0.5980 -0.3371 -0.7272
usemtl None
s 1
f 45/43/11 46/44/11 44/45/11 43/46/11
o Cube.170_Mesh.267
v 0.040629 1.922670 -0.461601
v 0.451573 1.922644 -0.104003
v 0.675045 1.136331 -1.350058
vt 0.675898 0.494982
vt 0.600658 0.494979
vt 0.626549 0.376969
vn 0.3849 0.8101 -0.4422
usemtl None
s 1
f 47/47/12 48/48/12 49/49/12
o Cube.169_Mesh.266
v 0.451573 1.922644 -0.104003
v 0.848544 0.504920 0.115816
v 0.675045 1.136331 -1.350058
vt 0.311781 0.494979
vt 0.298816 0.282207
vt 0.500000 0.376969
vn 0.9629 0.2700 0.0023
usemtl None
s 1
f 50/50/13 51/51/13 52/52/13
o Cube.168_Mesh.265
v 0.372362 0.504920 -0.771224
v 0.941944 0.000662 -0.308036
v 0.865953 0.000662 -1.065979
vt 0.468306 0.206528
vt 0.403343 0.282207
vt 0.363646 0.206528
vn 0.6923 0.7182 -0.0694
usemtl None
s 1
f 55/53/14 53/54/14 54/55/14
o Cube.167_Mesh.264
v 0.848544 0.504920 0.115816
v 0.941944 0.000662 -0.308036
v 0.675045 1.136331 -1.350058
vt 0.500000 0.376969
vt 0.298816 0.282207
vt 0.363646 0.206528
vn 0.9785 0.2045 -0.0277
usemtl None
s 1
f 58/56/15 56/57/15 57/58/15
o Cube.166_Mesh.263
v -0.001948 0.000662 -0.991010
v 0.865953 0.000662 -1.065979
v 0.372362 0.504920 -0.771224
vt 0.586126 0.206528
vt 0.706528 0.206528
vt 0.642908 0.282207
vn -0.0770 0.4459 -0.8918
usemtl None
s 1
f 60/59/16 59/60/16 61/61/16
o Cube.165_Mesh.262
v 0.403998 3.392726 -0.924642
v 0.108646 3.911544 -0.721688
v -0.080471 3.585525 -1.378621
vt 0.407379 0.744543
vt 0.326466 0.793472
vt 0.308508 0.715608
vn 0.6716 0.5683 -0.4754
usemtl None
s 1
f 64/62/17 63/63/17 62/64/17
o Cube.164_Mesh.261
v 0.031408 3.166519 -0.842309
v -0.754608 3.392980 -0.670237
v -0.464288 2.277307 -1.370592
vt 0.453272 0.548206
vt 0.426741 0.715646
vt 0.346484 0.681659
vn -0.0350 0.5248 -0.8505
usemtl None
s 1
f 67/65/18 66/66/18 65/67/18
o Cube.163_Mesh.260
v -0.653353 3.911544 -0.327032
v -0.754608 3.392980 -0.670237
v -0.080471 3.585525 -1.378621
vt 0.656711 0.727904
vt 0.661523 0.812198
vt 0.509948 0.706460
vn -0.6952 0.4862 -0.5295
usemtl None
s 1
f 69/68/19 68/69/19 70/70/19
o Cube.162_Mesh.259
v -0.791380 3.166515 -0.290145
v -0.726811 2.602306 -0.260136
v -0.464288 2.277307 -1.370592
vt 0.692820 0.596982
vt 0.694872 0.681658
vt 0.504338 0.597285
vn -0.9733 -0.1217 -0.1945
usemtl None
s 1
f 72/71/20 71/72/20 73/73/20
o Cube.161_Mesh.258
v 0.022822 2.604302 -0.770498
v 0.031408 3.166519 -0.842309
v -0.464288 2.277307 -1.370592
vt 0.346484 0.681659
vt 0.341192 0.597282
vt 0.453272 0.548206
vn 0.7964 -0.0886 -0.5982
usemtl None
s 1
f 75/74/21 74/75/21 76/76/21
o Cube.160_Mesh.257
v -0.726811 2.602306 -0.260136
v -0.426454 1.922670 -0.181283
v 0.022822 2.604302 -0.770498
v 0.040630 1.922644 -0.461610
vt 0.564725 0.597282
vt 0.600658 0.494979
vt 0.675898 0.494982
vt 0.692820 0.596982
vn -0.5068 -0.3371 -0.7934
usemtl None
s 1
f 79/77/22 80/78/22 78/79/22 77/80/22
o Cube.159_Mesh.256
v -0.426454 1.922670 -0.181283
v 0.040630 1.922644 -0.461610
v -1.075381 1.136331 -1.059197
vt 0.675898 0.494982
vt 0.600658 0.494979
vt 0.626549 0.376969
vn -0.3016 0.8101 -0.5027
usemtl None
s 1
f 81/81/23 82/82/23 83/83/23
o Cube.158_Mesh.255
v 0.040630 1.922644 -0.461610
v 0.372362 0.504920 -0.771224
v -1.075381 1.136331 -1.059197
vt 0.311781 0.494979
vt 0.298816 0.282207
vt 0.500000 0.376969
vn 0.2998 0.2700 -0.9150
usemtl None
s 1
f 84/84/24 85/85/24 86/86/24
o Cube.157_Mesh.254
v -0.618412 0.504920 -0.592458
v -0.001883 0.000663 -0.991030
v -0.746213 0.000662 -1.152976
vt 0.468306 0.206528
vt 0.403343 0.282207
vt 0.363646 0.206528
vn 0.1479 0.7182 -0.6799
usemtl None
s 1
f 89/87/25 87/88/25 88/89/25
o Cube.156_Mesh.253
v 0.372362 0.504920 -0.771224
v -0.001883 0.000663 -0.991030
v -1.075381 1.136331 -1.059197
vt 0.500000 0.376969
vt 0.298816 0.282207
vt 0.363646 0.206528
vn 0.2760 0.2045 -0.9391
usemtl None
s 1
f 92/90/26 90/91/26 91/92/26
o Cube.155_Mesh.252
v -0.943108 0.000662 -0.304386
v -0.746213 0.000662 -1.152976
v -0.618412 0.504920 -0.592458
vt 0.586126 0.206528
vt 0.706528 0.206528
vt 0.642908 0.282207
vn -0.8719 0.4459 -0.2023
usemtl None
s 1
f 94/93/27 93/94/27 95/95/27
o Cube.154_Mesh.251
v -0.754544 3.392726 -0.669955
v -0.791378 3.166519 -0.290159
v -1.336014 3.585525 -0.349485
vt 0.346484 0.681659
vt 0.407379 0.744543
vt 0.308508 0.715608
vn -0.5023 -0.7206 -0.4779
usemtl None
s 1
f 97/96/28 98/97/28 96/98/28
o Cube.153_Mesh.250
v -0.870332 3.392726 0.510587
v -0.512095 3.911544 0.519997
v -0.745232 3.585525 1.162628
vt 0.407379 0.744543
vt 0.326466 0.793472
vt 0.308508 0.715608
vn -0.8228 0.5683 -0.0102
usemtl None
s 1
f 101/99/29 100/100/29 99/101/29
o Cube.152_Mesh.249
v -0.520507 3.166519 0.662982
v 0.216535 3.392980 0.985781
v -0.429997 2.277307 1.381734
vt 0.453272 0.548206
vt 0.426741 0.715646
vt 0.346484 0.681659
vn -0.4716 0.5248 0.7086
usemtl None
s 1
f 104/102/30 103/103/30 102/104/30
o Cube.151_Mesh.248
v 0.336348 3.911544 0.648606
v 0.216535 3.392980 0.985781
v -0.745232 3.585525 1.162628
vt 0.656711 0.727904
vt 0.661523 0.812198
vt 0.509948 0.706460
vn 0.2512 0.4862 0.8370
usemtl None
s 1
f 106/105/31 105/106/31 107/107/31
o Cube.150_Mesh.247
v 0.469696 3.166515 0.699894
v 0.435098 2.602306 0.637663
v -0.429997 2.277307 1.381734
vt 0.692820 0.596982
vt 0.694872 0.681658
vt 0.504338 0.597285
vn 0.6731 -0.1217 0.7294
usemtl None
s 1
f 109/108/32 108/109/32 110/110/32
o Cube.149_Mesh.246
v -0.471352 2.604302 0.609931
v -0.520507 3.166519 0.662982
v -0.429997 2.277307 1.381734
vt 0.346484 0.681659
vt 0.341192 0.597282
vt 0.453272 0.548206
vn -0.9959 -0.0886 0.0158
usemtl None
s 1
f 112/111/33 111/112/33 113/113/33
o Cube.148_Mesh.245
v 0.435098 2.602306 0.637663
v 0.238452 1.922670 0.397324
v -0.471352 2.604302 0.609931
v -0.304199 1.922644 0.349568
vt 0.564725 0.597282
vt 0.600658 0.494979
vt 0.675898 0.494982
vt 0.692820 0.596982
vn -0.0563 -0.3371 0.9398
usemtl None
s 1
f 116/114/34 117/115/34 115/116/34 114/117/34
o Cube.147_Mesh.244
v 0.238452 1.922670 0.397324
v -0.304199 1.922644 0.349568
v 0.247421 1.136331 1.489002
vt 0.675898 0.494982
vt 0.600658 0.494979
vt 0.626549 0.376969
vn -0.0514 0.8101 0.5840
usemtl None
s 1
f 118/118/35 119/119/35 120/120/35
o Cube.146_Mesh.243
v -0.304199 1.922644 0.349568
v -0.754562 0.504920 0.405065
v 0.247421 1.136331 1.489002
vt 0.311781 0.494979
vt 0.298816 0.282207
vt 0.500000 0.376969
vn -0.7803 0.2700 0.5641
usemtl None
s 1
f 121/121/36 122/122/36 123/123/36
o Cube.145_Mesh.242
v 0.152067 0.504920 0.842803
v -0.580990 0.000662 0.802867
v -0.074004 0.000662 1.371390
vt 0.468306 0.206528
vt 0.403343 0.282207
vt 0.363646 0.206528
vn -0.5193 0.7182 0.4631
usemtl None
s 1
f 126/124/37 124/125/37 125/126/37
o Cube.144_Mesh.241
v -0.754562 0.504920 0.405065
v -0.580990 0.000662 0.802867
v 0.247421 1.136331 1.489002
vt 0.500000 0.376969
vt 0.298816 0.282207
vt 0.363646 0.206528
vn -0.7753 0.2045 0.5975
usemtl None
s 1
f 129/127/38 127/128/38 128/129/38
o Cube.143_Mesh.240
v 0.584077 0.000662 0.800599
v -0.074004 0.000662 1.371390
v 0.152067 0.504920 0.842803
vt 0.586126 0.206528
vt 0.706528 0.206528
vt 0.642908 0.282207
vn 0.5865 0.4459 0.6762
usemtl None
s 1
f 131/130/39 130/131/39 132/132/39
o Cube.142_Mesh.239
v 0.216650 3.392726 0.985516
v 0.336300 3.911544 0.647720
v 0.875436 3.585525 1.068029
vt 0.407379 0.744543
vt 0.326466 0.793472
vt 0.308508 0.715608
vn -0.2639 0.5683 0.7793
usemtl None
s 1
f 135/133/40 134/134/40 133/135/40
o Cube.141_Mesh.238
v 0.469687 3.166519 0.699904
v 1.004446 3.392980 0.098686
v 1.181230 2.277307 0.835931
vt 0.453272 0.548206
vt 0.426741 0.715646
vt 0.346484 0.681659
vn 0.5282 0.5248 0.6675
usemtl None
s 1
f 138/136/41 137/137/41 136/138/41
o Cube.140_Mesh.237
v 0.720798 3.911544 -0.119456
v 1.004446 3.392980 0.098686
v 0.875436 3.585525 1.068029
vt 0.656711 0.727904
vt 0.661523 0.812198
vt 0.509948 0.706460
vn 0.8736 0.4862 0.0197
usemtl None
s 1
f 140/139/42 139/140/42 141/141/42
o Cube.139_Mesh.236
v 0.810782 3.166515 -0.230429
v 0.740906 2.602306 -0.216754
v 1.181230 2.277307 0.835931
vt 0.692820 0.596982
vt 0.694872 0.681658
vt 0.504338 0.597285
vn 0.9017 -0.1217 -0.4148
usemtl None
s 1
f 143/142/43 142/143/43 144/144/43
o Cube.138_Mesh.235
v 0.434424 2.604302 0.636761
v 0.469687 3.166519 0.699904
v 1.181230 2.277307 0.835931
vt 0.346484 0.681659
vt 0.341192 0.597282
vt 0.453272 0.548206
vn -0.2927 -0.0886 0.9521
usemtl None
s 1
f 146/145/44 145/146/44 147/147/44
o Cube.137_Mesh.234
v 0.740906 2.602306 -0.216754
v 0.451564 1.922670 -0.104002
v 0.434424 2.604302 0.636761
v 0.238457 1.922644 0.397333
vt 0.564725 0.597282
vt 0.600658 0.494979
vt 0.675898 0.494982
vt 0.692820 0.596982
vn 0.8764 -0.3371 0.3440
usemtl None
s 1
f 150/148/45 151/149/45 149/150/45 148/151/45
o Cube.136_Mesh.233
v 0.451564 1.922670 -0.104002
v 0.238457 1.922644 0.397333
v 1.492582 1.136331 0.224816
vt 0.675898 0.494982
vt 0.600658 0.494979
vt 0.626549 0.376969
vn 0.5395 0.8101 0.2294
usemtl None
s 1
f 152/152/46 153/153/46 154/154/46
o Cube.135_Mesh.232
v 0.238457 1.922644 0.397333
v 0.152067 0.504920 0.842803
v 1.492582 1.136331 0.224816
vt 0.311781 0.494979
vt 0.298816 0.282207
vt 0.500000 0.376969
vn 0.2953 0.2700 0.9165
usemtl None
s 1
f 155/155/47 156/156/47 157/157/47
o Cube.134_Mesh.231
v 0.848544 0.504920 0.115816
v 0.584037 0.000662 0.800654
v 1.281401 0.000662 0.494164
vt 0.468306 0.206528
vt 0.403343 0.282207
vt 0.363646 0.206528
vn 0.2800 0.7182 0.6370
usemtl None
s 1
f 160/158/48 158/159/48 159/160/48
o Cube.133_Mesh.230
v 0.152067 0.504920 0.842803
v 0.584037 0.000662 0.800654
v 1.492582 1.136331 0.224816
vt 0.500000 0.376969
vt 0.298816 0.282207
vt 0.363646 0.206528
vn 0.3287 0.2045 0.9220
usemtl None
s 1
f 163/161/49 161/162/49 162/163/49
o Cube.132_Mesh.229
v 0.941905 0.000662 -0.308091
v 1.281401 0.000662 0.494164
v 0.848544 0.504920 0.115816
vt 0.586126 0.206528
vt 0.706528 0.206528
vt 0.642908 0.282207
vn 0.8243 0.4459 -0.3488
usemtl None
s 1
f 165/164/50 164/165/50 166/166/50
o Cube.131_Mesh.228
v 1.004229 3.392726 0.098495
v 0.810790 3.166519 -0.230417
v 1.286281 3.585525 -0.502550
vt 0.346484 0.681659
vt 0.407379 0.744543
vt 0.308508 0.715608
vn 0.6873 -0.7206 0.0914
usemtl None
s 1
f 168/167/51 169/168/51 167/169/51
o Cube.130_Mesh.227
v 0.810790 3.166519 -0.230417
v 0.404246 3.392980 -0.924789
v 1.286281 3.585525 -0.502550
vt 0.509948 0.706460
vt 0.583053 0.665685
vt 0.656711 0.727904
vn 0.4028 -0.7742 -0.4883
usemtl None
s 1
f 172/170/52 170/171/52 171/172/52
o Cube.129_Mesh.226
v 1.286281 3.585525 -0.502550
v 0.719940 3.911544 -0.119684
v 0.109129 3.911544 -0.722434
vt 0.509948 0.706460
vt 0.661523 0.812198
vt 0.553022 0.773674
vn 0.3072 0.8993 -0.3113
usemtl None
s 1
f 173/173/53 175/174/53 174/175/53
o Cube.128_Mesh.225
v 0.404246 3.392980 -0.924789
v 1.160038 2.277307 -0.865100
v 0.031395 3.166515 -0.842306
vt 0.504338 0.597285
vt 0.694872 0.681658
vt 0.656711 0.727904
vn -0.1312 -0.1414 -0.9812
usemtl None
s 1
f 177/176/54 178/177/54 176/178/54
o Cube.127_Mesh.224
v 1.160038 2.277307 -0.865100
v 0.022807 2.602306 -0.771624
v 0.739840 2.604302 -0.216391
vt 0.263983 0.548206
vt 0.234091 0.597282
vt 0.105996 0.596982
vn -0.2376 -0.9205 0.3101
usemtl None
s 1
f 179/179/55 181/180/55 180/181/55
o Cube.126_Mesh.223
v 0.040629 1.922670 -0.461601
v 0.675045 1.136331 -1.350058
v 0.372362 0.504920 -0.771224
vt 0.706528 0.376969
vt 0.803185 0.282207
vt 0.862764 0.494982
vn -0.8439 -0.0816 -0.5303
usemtl None
s 1
f 183/182/56 184/183/56 182/184/56
o Cube.125_Mesh.222
v 0.675045 1.136331 -1.350058
v 0.941944 0.000662 -0.308036
v 0.372362 0.504920 -0.771224
vt 0.626549 0.376969
vt 0.540128 0.206528
vt 0.642908 0.282207
vn 0.0008 -0.6760 -0.7369
usemtl None
s 1
f 185/185/57 186/186/57 187/187/57
o Cube.124_Mesh.221
v 0.403998 3.392726 -0.924642
v 0.031408 3.166519 -0.842309
v -0.080471 3.585525 -1.378621
vt 0.346484 0.681659
vt 0.407379 0.744543
vt 0.308508 0.715608
vn 0.2993 -0.7206 -0.6254
usemtl None
s 1
f 189/188/58 190/189/58 188/190/58
o Cube.123_Mesh.220
v 0.031408 3.166519 -0.842309
v -0.754608 3.392980 -0.670237
v -0.080471 3.585525 -1.378621
vt 0.509948 0.706460
vt 0.583053 0.665685
vt 0.656711 0.727904
vn -0.3399 -0.7742 -0.5339
usemtl None
s 1
f 193/191/59 191/192/59 192/193/59
o Cube.122_Mesh.219
v -0.080471 3.585525 -1.378621
v 0.108646 3.911544 -0.721688
v -0.653353 3.911544 -0.327032
vt 0.509948 0.706460
vt 0.661523 0.812198
vt 0.553022 0.773674
vn -0.2012 0.8993 -0.3884
usemtl None
s 1
f 194/194/60 196/195/60 195/196/60
o Cube.121_Mesh.218
v -0.754608 3.392980 -0.670237
v -0.464288 2.277307 -1.370592
v -0.791380 3.166515 -0.290145
vt 0.504338 0.597285
vt 0.694872 0.681658
vt 0.656711 0.727904
vn -0.9737 -0.1414 -0.1784
usemtl None
s 1
f 198/197/61 199/198/61 197/199/61
o Cube.120_Mesh.217
v -0.464288 2.277307 -1.370592
v -0.726811 2.602306 -0.260136
v 0.022822 2.604302 -0.770498
vt 0.263983 0.548206
vt 0.234091 0.597282
vt 0.105996 0.596982
vn 0.2215 -0.9205 0.3218
usemtl None
s 1
f 200/200/62 202/201/62 201/202/62
o Cube.119_Mesh.216
v -0.426454 1.922670 -0.181283
v -1.075381 1.136331 -1.059197
v -0.618412 0.504920 -0.592458
vt 0.706528 0.376969
vt 0.803185 0.282207
vt 0.862764 0.494982
vn -0.7651 -0.0816 0.6387
usemtl None
s 1
f 204/203/63 205/204/63 203/205/63
o Cube.118_Mesh.215
v -1.075381 1.136331 -1.059197
v -0.001883 0.000663 -0.991030
v -0.618412 0.504920 -0.592458
vt 0.626549 0.376969
vt 0.540128 0.206528
vt 0.642908 0.282207
vn -0.7006 -0.6760 -0.2285
usemtl None
s 1
f 206/206/64 207/207/64 208/208/64
o Cube.117_Mesh.214
v -0.870332 3.392726 0.510587
v -0.520507 3.166519 0.662982
v -0.745232 3.585525 1.162628
vt 0.346484 0.681659
vt 0.407379 0.744543
vt 0.308508 0.715608
vn -0.6097 -0.7206 0.3301
usemtl None
s 1
f 210/209/65 211/210/65 209/211/65
o Cube.116_Mesh.213
v -0.520507 3.166519 0.662982
v 0.216535 3.392980 0.985781
v -0.745232 3.585525 1.162628
vt 0.509948 0.706460
vt 0.583053 0.665685
vt 0.656711 0.727904
vn -0.0388 -0.7742 0.6318
usemtl None
s 1
f 214/212/66 212/213/66 213/214/66
o Cube.115_Mesh.212
v -0.745232 3.585525 1.162628
v -0.512095 3.911544 0.519997
v 0.336348 3.911544 0.648606
vt 0.509948 0.706460
vt 0.661523 0.812198
vt 0.553022 0.773674
vn -0.0656 0.8993 0.4324
usemtl None
s 1
f 215/215/67 217/216/67 216/217/67
o Cube.114_Mesh.211
v 0.216535 3.392980 0.985781
v -0.429997 2.277307 1.381734
v 0.469696 3.166515 0.699894
vt 0.504338 0.597285
vt 0.694872 0.681658
vt 0.656711 0.727904
vn 0.6829 -0.1414 0.7167
usemtl None
s 1
f 219/218/68 220/219/68 218/220/68
o Cube.113_Mesh.210
v -0.429997 2.277307 1.381734
v 0.435098 2.602306 0.637663
v -0.471352 2.604302 0.609931
vt 0.263983 0.548206
vt 0.234091 0.597282
vt 0.105996 0.596982
vn 0.0099 -0.9205 -0.3905
usemtl None
s 1
f 221/221/69 223/222/69 222/223/69
o Cube.112_Mesh.209
v 0.238452 1.922670 0.397324
v 0.247421 1.136331 1.489002
v 0.152067 0.504920 0.842803
vt 0.706528 0.376969
vt 0.803185 0.282207
vt 0.862764 0.494982
vn 0.9944 -0.0816 -0.0670
usemtl None
s 1
f 225/224/70 226/225/70 224/226/70
o Cube.111_Mesh.208
v 0.247421 1.136331 1.489002
v -0.580990 0.000662 0.802867
v 0.152067 0.504920 0.842803
vt 0.626549 0.376969
vt 0.540128 0.206528
vt 0.642908 0.282207
vn 0.4325 -0.6760 0.5967
usemtl None
s 1
f 227/227/71 228/228/71 229/229/71
o Cube.110_Mesh.207
v 0.216650 3.392726 0.985516
v 0.469687 3.166519 0.699904
v 0.875436 3.585525 1.068029
vt 0.346484 0.681659
vt 0.407379 0.744543
vt 0.308508 0.715608
vn 0.1255 -0.7206 0.6819
usemtl None
s 1
f 231/230/72 232/231/72 230/232/72
o Cube.109_Mesh.206
v 0.469687 3.166519 0.699904
v 1.004446 3.392980 0.098686
v 0.875436 3.585525 1.068029
vt 0.509948 0.706460
vt 0.583053 0.665685
vt 0.656711 0.727904
vn 0.5889 -0.7742 0.2321
usemtl None
s 1
f 235/233/73 233/234/73 234/235/73
o Cube.108_Mesh.205
v 0.875436 3.585525 1.068029
v 0.336300 3.911544 0.647720
v 0.720798 3.911544 -0.119456
vt 0.509948 0.706460
vt 0.661523 0.812198
vt 0.553022 0.773674
vn 0.3910 0.8993 0.1960
usemtl None
s 1
f 236/236/74 238/237/74 237/238/74
o Cube.107_Mesh.204
v 1.004446 3.392980 0.098686
v 1.181230 2.277307 0.835931
v 0.810782 3.166515 -0.230429
vt 0.504338 0.597285
vt 0.694872 0.681658
vt 0.656711 0.727904
vn 0.8927 -0.1414 -0.4280
usemtl None
s 1
f 240/239/75 241/240/75 239/241/75
o Cube.106_Mesh.203
v 1.181230 2.277307 0.835931
v 0.740906 2.602306 -0.216754
v 0.434424 2.604302 0.636761
vt 0.263983 0.548206
vt 0.234091 0.597282
vt 0.105996 0.596982
vn -0.3684 -0.9205 -0.1301
usemtl None
s 1
f 242/242/76 244/243/76 243/244/76
o Cube.105_Mesh.202
v 0.451564 1.922670 -0.104002
v 1.492582 1.136331 0.224816
v 0.848544 0.504920 0.115816
vt 0.706528 0.376969
vt 0.803185 0.282207
vt 0.862764 0.494982
vn 0.2436 -0.0816 -0.9664
usemtl None
s 1
f 246/245/77 247/246/77 245/247/77
o Cube.104_Mesh.201
v 1.492582 1.136331 0.224816
v 0.584037 0.000662 0.800654
v 0.848544 0.504920 0.115816
vt 0.626549 0.376969
vt 0.540128 0.206528
vt 0.642908 0.282207
vn 0.7011 -0.6760 -0.2269
usemtl None
s 1
f 248/248/78 249/249/78 250/250/78
o Cube.103_Mesh.196
v -0.870620 3.392980 0.510560
v -0.520494 3.166515 0.662987
v -1.446983 2.277307 0.018028
vt 0.504338 0.597285
vt 0.694872 0.681658
vt 0.656711 0.727904
vn -0.4706 -0.1414 0.8709
usemtl None
s 1
f 253/251/79 252/252/79 251/253/79
o Cube.102_Mesh.195
v -0.520494 3.166515 0.662987
v -0.472001 2.602306 0.610851
v -1.446983 2.277307 0.018028
vt 0.692820 0.596982
vt 0.694872 0.681658
vt 0.504338 0.597285
vn -0.4857 -0.1217 0.8656
usemtl None
s 1
f 255/254/80 254/255/80 256/256/80
o Cube.101_Mesh.194
v -0.472001 2.602306 0.610851
v -0.304192 1.922670 0.349562
v -0.725734 2.604302 -0.259802
v -0.426462 1.922644 -0.181287
vt 0.564725 0.597282
vt 0.600658 0.494979
vt 0.675898 0.494982
vt 0.692820 0.596982
vn -0.9112 -0.3371 0.2368
usemtl None
s 1
f 259/257/81 260/258/81 258/259/81 257/260/81
o Cube.100_Mesh.193
v -0.304192 1.922670 0.349562
v -0.754561 0.504920 0.405065
v -1.339667 1.136331 0.695438
vt 0.706528 0.376969
vt 0.803185 0.282207
vt 0.862764 0.494982
vn 0.3710 -0.0816 0.9250
usemtl None
s 1
f 263/261/82 262/262/82 261/263/82
o Cube.099_Mesh.192
v -0.426462 1.922644 -0.181287
v -1.339667 1.136331 0.695438
v -0.304192 1.922670 0.349562
vt 0.675898 0.494982
vt 0.600658 0.494979
vt 0.626549 0.376969
vn -0.5713 0.8101 0.1315
usemtl None
s 1
f 266/264/83 264/265/83 265/266/83
o Cube.098_Mesh.191
v -1.339667 1.136331 0.695438
v -0.426462 1.922644 -0.181287
v -0.618412 0.504920 -0.592459
vt 0.311781 0.494979
vt 0.298816 0.282207
vt 0.500000 0.376969
vn -0.7776 0.2700 -0.5678
usemtl None
s 1
f 268/267/84 269/268/84 267/269/84
o Cube.097_Mesh.190
v -0.754561 0.504920 0.405065
v -0.580925 0.000662 0.802889
v -1.327137 0.000663 0.353401
vt 0.586126 0.206528
vt 0.706528 0.206528
vt 0.642908 0.282207
vn -0.4619 0.4459 0.7667
usemtl None
s 1
f 272/270/85 271/271/85 270/272/85
o Cube.096_Mesh.189
v -0.943108 0.000663 -0.304454
v -0.618412 0.504920 -0.592459
v -1.339667 1.136331 0.695438
vt 0.500000 0.376969
vt 0.298816 0.282207
vt 0.363646 0.206528
vn -0.8079 0.2045 -0.5527
usemtl None
s 1
f 275/273/86 274/274/86 273/275/86
o Cube.095_Mesh.188
v -0.754544 3.392726 -0.669955
v -1.336014 3.585525 -0.349485
v -0.652792 3.911544 -0.326343
vt 0.407379 0.744543
vt 0.326466 0.793472
vt 0.308508 0.715608
vn -0.2446 0.5683 -0.7856
usemtl None
s 1
f 277/276/87 278/277/87 276/278/87
o Cube.094_Mesh.187
v -0.791378 3.166519 -0.290159
v -0.870620 3.392980 0.510560
v -1.446983 2.277307 0.018028
vt 0.453272 0.548206
vt 0.426741 0.715646
vt 0.346484 0.681659
vn -0.8197 0.5248 -0.2295
usemtl None
s 1
f 281/279/88 280/280/88 279/281/88
o Cube.093_Mesh.186
v -1.446983 2.277307 0.018028
v -0.472001 2.602306 0.610851
v -0.725734 2.604302 -0.259802
vt 0.263983 0.548206
vt 0.234091 0.597282
vt 0.105996 0.596982
vn 0.3745 -0.9205 -0.1112
usemtl None
s 1
f 282/282/89 284/283/89 283/284/89
o Cube.092_Mesh.185
v -1.339667 1.136331 0.695438
v -0.754561 0.504920 0.405065
v -0.943108 0.000663 -0.304454
vt 0.626549 0.376969
vt 0.540128 0.206528
vt 0.642908 0.282207
vn -0.4338 -0.6760 0.5957
usemtl None
s 1
f 285/285/90 287/286/90 286/287/90
o Cube.091_Mesh.184
v -0.754561 0.504920 0.405065
v -0.943108 0.000663 -0.304454
v -1.327137 0.000663 0.353401
vt 0.468306 0.206528
vt 0.403343 0.282207
vt 0.363646 0.206528
vn -0.6009 0.7182 -0.3508
usemtl None
s 1
f 290/288/91 288/289/91 289/290/91
